<svg xmlns="http://www.w3.org/2000/svg" width="30" height="30" viewBox="0 0 30 30">
    <path fill="#FFF" fill-rule="nonzero" d="M3.852.003a.763.763 0 0 0-.082.02.653.653 0 0 0-.51.652V6.54h5.87a.656.656 0 0 0 .574-.323.657.657 0 0 0 0-.657.656.656 0 0 0-.574-.323H5.421A13.655 13.655 0 0 1 15 1.327c7.571 0 13.696 6.12 13.696 13.685S22.57 28.697 15 28.697 1.304 22.577 1.304 15.012c0-2.263.558-4.394 1.529-6.273L1.67 8.15A14.89 14.89 0 0 0 0 15.012C0 23.282 6.723 30 15 30c8.277 0 15-6.718 15-14.988S23.277.023 15 .023c-4.06 0-7.734 1.632-10.435 4.257V.675a.652.652 0 0 0-.713-.672zM15 1.978a.653.653 0 0 0-.652.652.653.653 0 0 0 1.304 0A.653.653 0 0 0 15 1.978zm6.196 1.65a.653.653 0 0 0-.653.652.653.653 0 0 0 1.305 0 .653.653 0 0 0-.652-.652zm4.544 4.541a.653.653 0 0 0-.652.652.653.653 0 0 0 1.305 0 .653.653 0 0 0-.653-.652zM10.68 9.737c-1.81 0-3.098 1.179-3.098 2.872v.02h1.345v-.02c0-.98.677-1.63 1.691-1.63.948 0 1.671.627 1.671 1.467 0 .674-.298 1.163-1.528 2.443l-3.098 3.218v1.039h6.196v-1.283h-4.22v-.102l2.06-2.077c1.54-1.558 1.997-2.347 1.997-3.32 0-1.514-1.272-2.627-3.017-2.627zm8.62.224c-1.638 2.452-3.008 4.587-3.831 6.09v1.323h4.483v1.772h1.366v-1.772h1.284V16.09h-1.284v-6.13H19.3zm.591 1.263h.082v4.908h-3.139v-.102a69.07 69.07 0 0 1 3.057-4.806zM2.61 14.36a.653.653 0 0 0-.652.652.653.653 0 0 0 1.304 0 .653.653 0 0 0-.652-.652zm24.782 0a.653.653 0 0 0-.652.652.653.653 0 0 0 1.304 0 .653.653 0 0 0-.652-.652zM4.26 20.55a.653.653 0 0 0-.653.652.653.653 0 0 0 1.305 0 .653.653 0 0 0-.652-.651zm21.48 0a.653.653 0 0 0-.652.652.653.653 0 0 0 1.305 0 .653.653 0 0 0-.653-.651zM8.804 25.093a.653.653 0 0 0-.652.652.653.653 0 0 0 1.305 0 .653.653 0 0 0-.653-.652zm12.392 0a.653.653 0 0 0-.653.652.653.653 0 0 0 1.305 0 .653.653 0 0 0-.652-.652zM15 26.742a.653.653 0 0 0-.652.651.653.653 0 0 0 1.304 0 .653.653 0 0 0-.652-.651z"/>
</svg>
