<svg xmlns="http://www.w3.org/2000/svg" width="30" height="30" viewBox="0 0 30 30">
    <path fill="#FFF" fill-rule="nonzero" d="M15 0C6.722 0 0 6.722 0 15c0 8.278 6.722 15 15 15 8.278 0 15-6.722 15-15 0-8.278-6.722-15-15-15zm0 1.071c7.699 0 13.929 6.23 13.929 13.929S22.699 28.929 15 28.929 1.071 22.699 1.071 15 7.301 1.071 15 1.071zm0 1.608a.537.537 0 0 0 0 1.071.537.537 0 0 0 0-1.071zm-3.047.401h-.035a.535.535 0 1 0 .036 0zm6.094 0a.535.535 0 1 0 .142.019.542.542 0 0 0-.142-.019zM9.092 4.26a.517.517 0 0 0-.253.069.54.54 0 0 0-.196.734.536.536 0 1 0 .45-.803zm11.776 0a.536.536 0 1 0 .05 1.07.536.536 0 0 0-.05-1.07zM6.673 6.129a.537.537 0 0 0-.387.917c.21.207.55.207.76 0a.542.542 0 0 0 0-.76.552.552 0 0 0-.373-.157zm16.668 0a.555.555 0 0 0-.387.157.542.542 0 0 0 0 .76c.21.207.55.207.76 0a.542.542 0 0 0 0-.76.542.542 0 0 0-.373-.157zm-8.833 2.214v1.03c-2.013.186-3.233 1.327-3.233 3.049 0 1.452.908 2.45 2.57 2.877l.663.17v3.398c-1.111-.125-1.827-.745-1.902-1.632h-1.578c.009 1.73 1.348 2.9 3.48 3.04v.97h1.021v-.976c2.183-.186 3.445-1.326 3.445-3.153 0-1.543-.881-2.488-2.752-2.945l-.693-.157v-3.21c.984.12 1.656.76 1.685 1.578h1.557c-.046-1.661-1.312-2.84-3.242-3.01V8.344h-1.02zm10.685.228a.536.536 0 1 0 0 0zm-20.424 0a.546.546 0 0 0-.44.268.54.54 0 0 0-.054.406.54.54 0 0 0 .657.381.53.53 0 0 0 .325-.251.534.534 0 0 0-.488-.804zm9.74 2.225V13.8c-1.074-.218-1.641-.747-1.641-1.513 0-.814.686-1.44 1.64-1.492zm-10.9.62a.535.535 0 0 0-.133 1.052.535.535 0 1 0 .134-1.053zm22.78 0c-.013-.003-.026 0-.039 0a.535.535 0 1 0 .038 0zM3.213 14.463a.537.537 0 0 0 0 1.072.537.537 0 0 0 0-1.072zm23.572 0a.537.537 0 0 0 0 1.072.537.537 0 0 0 0-1.072zm-11.257 1.2c1.266.253 1.857.767 1.857 1.623 0 .948-.678 1.528-1.857 1.597v-3.22zM3.62 17.513l-.037.001a.535.535 0 1 0 .55.398.539.539 0 0 0-.513-.4zm22.758.001a.535.535 0 1 0 .144.019.546.546 0 0 0-.144-.019zM4.78 20.357a.537.537 0 0 0-.452.804.544.544 0 0 0 .326.249.534.534 0 1 0 .126-1.053zm20.4 0a.536.536 0 1 0 .293.073.532.532 0 0 0-.292-.073zM6.674 22.8a.535.535 0 1 0 .372.155.531.531 0 0 0-.372-.155zm16.668 0a.527.527 0 0 0-.387.155c-.21.21-.21.55 0 .76a.54.54 0 0 0 .758 0c.209-.21.209-.55 0-.76a.532.532 0 0 0-.37-.155zm-2.463 1.871a.522.522 0 0 0-.253.073.533.533 0 0 0-.197.73.537.537 0 0 0 .982-.13.535.535 0 0 0-.532-.674zm-11.796.002a.539.539 0 0 0-.494.674.535.535 0 0 0 .981.128.534.534 0 0 0-.487-.802zm2.863 1.176a.535.535 0 1 0 .142.019.542.542 0 0 0-.142-.019zm6.125 0a.535.535 0 1 0 0 0zM15 26.25a.537.537 0 0 0 0 1.071.537.537 0 0 0 0-1.071z"/>
</svg>
