<svg height="31" viewBox="0 0 31 31" width="31" xmlns="http://www.w3.org/2000/svg"><g fill="none" fill-rule="evenodd" transform="translate(1 1)"><path d="m5.5 0c-1.9211555 0-3.47368421 1.59757306-3.47368421 3.57446809v1.4893617h-1.15789474c-.47604844 0-.86842105.40375672-.86842105.89361702v7.14893619c0 .4898603.39237261.893617.86842105.893617h9.26315785c.4760485 0 .8684211-.4037567.8684211-.893617v-7.14893619c0-.4898603-.3923726-.89361702-.8684211-.89361702h-1.15789469v-1.4893617c0-1.97689503-1.55252871-3.57446809-3.47368421-3.57446809zm0 .59574468c1.61132805 0 2.89473684 1.32064502 2.89473684 2.97872341v1.4893617h-5.78947368v-1.4893617c0-1.65807839 1.28340879-2.97872341 2.89473684-2.97872341zm-4.63157895 5.06382979h9.26315785c.1605676 0 .2894737.13264642.2894737.29787234v7.14893619c0 .1652262-.1289061.2978723-.2894737.2978723h-9.26315785c-.16056729 0-.28947368-.1326461-.28947368-.2978723v-7.14893619c0-.16522592.12890639-.29787234.28947368-.29787234zm4.63157895 2.38297872c-.49187918 0-.86842105.38746668-.86842105.89361702 0 .26761983.11533731.50265958.28947368.65159575v.83776594c0 .3281252.26007416.5957447.57894737.5957447.3188735 0 .57894737-.2676195.57894737-.5957447v-.83776594c.17413666-.14893617.28947368-.38397592.28947368-.65159575 0-.50615034-.37654187-.89361702-.86842105-.89361702z" fill="#fff" fill-rule="nonzero" transform="translate(9 7)"/><g stroke="#fff"><circle cx="14.5" cy="14.5" r="14.5"/><path d="m14.5 27c6.9035594 0 12.5-5.5964406 12.5-12.5 0-6.71894244-5.3011197-12.19974202-11.9490356-12.48807515-.0944439-.00409622-.4618004-.01192485-.5509644-.01192485-6.90355937 0-12.5 5.59644063-12.5 12.5 0 6.9035594 5.59644063 12.5 12.5 12.5z" stroke-dasharray="0 3.472222" stroke-linecap="round" stroke-width=".694444"/></g></g></svg>